# xmcd
#
# Track frame offsets:
# 150
# 24320
# 37641
# 51163
# 65515
# 80060
# 91254
# 101917
# 112562
# 123517
# 134360
# 146313
# 159782
# 172289
# 186591
# 195938
# 218733
# 233735
#
# Disc length: 3280 seconds
#
#
# Revision: 0
# Processed by: cddbd v1.5PL3 Copyright (c) Steve Scherf et al.
# Submitted via: FreeRIP 2.51 
#
DISCID=eb0cce12
DTITLE=James Brown - CD of JB James Brown
DYEAR=1990
DGENRE=R&B
TTITLE0=Doing it to Death
TTITLE1=Super Bad
TTITLE2=Soul Power
TTITLE3=Think
TTITLE4=It's A Mans World
TTITLE5=Try Me
TTITLE6=Bewildered
TTITLE7=Out Of Sight
TTITLE8=I Got You
TTITLE9=Prisoner Of Love
TTITLE10=I Got THe Feeling
TTITLE11=Maybe The Last Time
TTITLE12=Lickin' Stick
TTITLE13=Mother Popcorn
TTITLE14=Pappa's Got A Brand New Bag
TTITLE15=Sex Machine
TTITLE16=THe Payback
TTITLE17=Please Please Please
EXTD=
EXTT0=
EXTT1=
EXTT2=
EXTT3=
EXTT4=
EXTT5=
EXTT6=
EXTT7=
EXTT8=
EXTT9=
EXTT10=
EXTT11=
EXTT12=
EXTT13=
EXTT14=
EXTT15=
EXTT16=
EXTT17=
PLAYORDER=
